<svg xmlns="http://www.w3.org/2000/svg" xmlns:xlink="http://www.w3.org/1999/xlink" width="35" height="35" viewBox="0 0 35 35">
  <defs>
    <clipPath id="clip-path">
      <rect id="Rectangle_830" data-name="Rectangle 830" width="35" height="35" transform="translate(421 4782)" fill="none" stroke="#707070" stroke-width="1"/>
    </clipPath>
    <linearGradient id="linear-gradient" x1="0.5" x2="0.5" y2="1" gradientUnits="objectBoundingBox">
      <stop offset="0" stop-color="#f48120"/>
      <stop offset="1" stop-color="#ffbe87"/>
    </linearGradient>
  </defs>
  <g id="producticon" transform="translate(-421 -4782)" clip-path="url(#clip-path)">
    <path id="Icon_awesome-info-circle" data-name="Icon awesome-info-circle" d="M15.563.563a15,15,0,1,0,15,15A15,15,0,0,0,15.563.563Zm0,6.653a2.54,2.54,0,1,1-2.54,2.54A2.54,2.54,0,0,1,15.563,7.216ZM18.95,22.579a.726.726,0,0,1-.726.726H12.9a.726.726,0,0,1-.726-.726V21.127A.726.726,0,0,1,12.9,20.4h.726V16.53H12.9a.726.726,0,0,1-.726-.726V14.353a.726.726,0,0,1,.726-.726h3.871a.726.726,0,0,1,.726.726V20.4h.726a.726.726,0,0,1,.726.726Z" transform="translate(423.438 4784.428)" fill="url(#linear-gradient)"/>
  </g>
</svg>
