<svg xmlns="http://www.w3.org/2000/svg" xmlns:xlink="http://www.w3.org/1999/xlink" width="35" height="35" viewBox="0 0 35 35">
  <defs>
    <clipPath id="clip-path">
      <rect id="Rectangle_831" data-name="Rectangle 831" width="35" height="35" transform="translate(421 4782)" fill="none" stroke="#707070" stroke-width="1"/>
    </clipPath>
    <linearGradient id="linear-gradient" x1="0.5" x2="0.5" y2="1" gradientUnits="objectBoundingBox">
      <stop offset="0" stop-color="#f48120"/>
      <stop offset="1" stop-color="#ffbe87"/>
    </linearGradient>
  </defs>
  <g id="docicon" transform="translate(-421 -4782)" clip-path="url(#clip-path)">
    <g id="Icon_ionic-ios-document" data-name="Icon ionic-ios-document" transform="translate(420.2 4781.053)">
      <path id="Path_2282" data-name="Path 2282" d="M21.583,9.051h4.7a.256.256,0,0,0,.258-.258h0a1.528,1.528,0,0,0-.552-1.182l-3.94-3.284a1.658,1.658,0,0,0-1.064-.382h0a.381.381,0,0,0-.382.382V8.07A.981.981,0,0,0,21.583,9.051Z" transform="translate(2.803 -0.002)" fill="url(#linear-gradient)"/>
      <path id="Path_2283" data-name="Path 2283" d="M19.125,9.735v-5.8H9.631A2.326,2.326,0,0,0,7.313,6.256V30.605a2.326,2.326,0,0,0,2.319,2.319H27.024a2.326,2.326,0,0,0,2.319-2.319V13H22.386A3.266,3.266,0,0,1,19.125,9.735Z" fill="url(#linear-gradient)"/>
    </g>
  </g>
</svg>
